<?xml version="1.0" encoding="utf-8"?>
<svg id="Layer_2" viewBox="-2.364 316.761 2652.87 1087.387" xmlns="http://www.w3.org/2000/svg">
  <defs>
    <style>.cls-1{fill:#c5003d;}.cls-2{fill:#918dff;}.cls-3{fill:#f73164;}.cls-4{fill:#7366ff;}.cls-5{fill:#4f49cc;}.cls-6{fill:#1b1464;}.cls-7{fill:#ff548e;}</style>
  </defs>
  <path class="cls-6" d="M 150.824 897.5 C 150.569 897.155 150.315 896.812 150.061 896.468 C 150.248 896.492 150.45 896.514 150.645 896.53 C 150.696 896.858 150.764 897.179 150.824 897.5 Z" style=""/>
  <path class="cls-6" d="M 415.792 850.54 C 415.396 850.991 414.999 851.434 414.595 851.877 C 414.543 851.67 414.484 851.464 414.439 851.258 C 414.895 851.013 415.343 850.777 415.799 850.54 L 415.792 850.54 Z" style=""/>
  <path class="cls-6" d="M 150.824 897.5 C 150.569 897.155 150.315 896.812 150.061 896.468 C 150.248 896.492 150.45 896.514 150.645 896.53 C 150.696 896.858 150.764 897.179 150.824 897.5 Z" style=""/>
  <path class="cls-6" d="M 415.792 850.54 C 415.396 850.991 414.999 851.434 414.595 851.877 C 414.543 851.67 414.484 851.464 414.439 851.258 C 414.895 851.013 415.343 850.777 415.799 850.54 L 415.792 850.54 Z" style=""/>
  <path class="cls-6" d="M 415.792 850.54 C 415.396 850.991 414.999 851.434 414.595 851.877 C 414.543 851.67 414.484 851.464 414.439 851.258 C 414.895 851.013 415.343 850.777 415.799 850.54 L 415.792 850.54 Z" style=""/>
  <path class="cls-6" d="M 415.792 850.54 C 415.396 850.991 414.999 851.434 414.595 851.877 C 414.543 851.67 414.484 851.464 414.439 851.258 C 414.895 851.013 415.343 850.777 415.799 850.54 L 415.792 850.54 Z" style=""/>
  <path class="cls-7" d="M 415.792 850.54 C 445.33 817.021 458.398 779.867 447.999 747.052 C 443.946 734.274 436.635 723.087 426.654 713.639 C 416.921 704.414 404.652 696.839 390.418 691.05 C 384.519 688.651 378.284 686.551 371.75 684.773 C 358.899 681.267 344.896 678.976 330.049 677.968 C 311.216 676.677 291.023 677.456 270.097 680.434 C 292.346 673.721 314.184 668.36 335.222 664.32 C 369.881 657.677 402.38 654.629 430.991 655.088 C 442.885 655.278 454.1 656.072 464.521 657.463 C 469.784 658.158 474.853 659.012 479.69 660.02 C 513.751 667.085 536.987 681.633 543.865 703.322 C 557.389 745.982 503.763 804.161 415.776 850.524 L 415.792 850.54 Z" style=""/>
  <path class="cls-6" d="M 415.792 850.54 C 415.396 850.991 414.999 851.434 414.595 851.877 C 414.543 851.67 414.484 851.464 414.439 851.258 C 414.895 851.013 415.343 850.777 415.799 850.54 L 415.792 850.54 Z" style=""/>
  <path class="cls-5" d="M 785.299 1111.784 L 679.847 1098.481 L 622.051 1024.776 L 805.252 893.971 L 909.29 805.917 C 909.537 811.675 909.656 817.472 909.656 823.291 C 909.656 902.073 884.349 973.662 847.611 1036.812 C 835.568 1056.874 811.293 1085.017 785.299 1111.784 Z" style=""/>
  <path class="cls-1" d="M 479.586 1211.447 C 331.984 1192.904 210.378 1088.553 164.064 948.744 C 161.223 940.175 158.666 931.468 156.408 922.64 C 154.284 914.37 152.416 905.984 150.824 897.5 C 150.764 897.179 150.704 896.858 150.645 896.53 C 146.24 872.801 143.938 848.325 143.938 823.291 C 143.938 813.294 144.304 803.39 145.03 793.576 C 155.661 786.214 167.712 779.066 180.915 772.352 C 198.155 763.578 217.361 755.544 237.942 748.731 C 264.258 740.026 289.909 734.282 313.302 731.434 C 268.43 776.431 238.54 832.586 227.716 891.512 C 227.14 894.666 226.616 897.82 226.146 900.981 C 225.427 905.801 224.844 910.635 224.389 915.476 C 223.417 925.802 223.035 936.181 223.267 946.56 C 223.327 949.469 223.446 952.371 223.611 955.273 C 225.098 982.177 230.751 1009.029 240.925 1035.079 C 278.493 1131.228 368.251 1192.018 470.726 1202.741 C 473.65 1205.703 476.603 1208.605 479.578 1211.439 L 479.586 1211.447 Z" style=""/>
  <path class="cls-3" d="M 470.734 1202.749 C 368.258 1192.026 278.493 1131.236 240.933 1035.087 C 230.758 1009.037 225.106 982.185 223.619 955.281 C 223.454 952.379 223.335 949.476 223.274 946.566 C 223.043 936.189 223.424 925.81 224.396 915.484 C 224.852 910.642 225.435 905.808 226.153 900.989 C 226.616 897.828 227.147 894.666 227.722 891.52 C 238.54 832.6 268.43 776.438 313.309 731.442 C 289.917 734.29 264.266 740.033 237.95 748.739 C 217.368 755.544 198.162 763.585 180.923 772.36 C 167.712 779.073 155.668 786.222 145.037 793.584 C 135.146 800.426 126.482 807.452 119.252 814.478 C 100.128 833.089 91.045 851.739 95.934 867.158 C 101.13 883.546 121.196 893.436 150.068 896.468 C 150.323 896.812 150.569 897.155 150.83 897.5 C 152.424 905.984 154.292 914.37 156.415 922.64 C 119.955 923.74 88.719 919.662 65.797 910.596 C 45.335 902.51 31.497 890.45 26.451 874.542 C 17.525 846.37 37.868 811.438 78.043 777.615 C 78.043 777.615 78.058 777.599 78.058 777.599 C 92.076 765.793 108.508 754.131 126.959 742.935 C 136.073 737.406 145.673 731.984 155.72 726.721 C 164.588 722.078 173.805 717.55 183.337 713.174 C 204.936 703.254 228.127 694.09 252.551 686.01 C 258.435 684.062 264.296 682.206 270.12 680.45 C 291.053 677.471 311.238 676.693 330.071 677.983 C 344.918 678.991 358.921 681.274 371.773 684.787 C 378.307 686.567 384.541 688.667 390.44 691.065 C 404.675 696.854 416.943 704.422 426.677 713.655 C 436.65 723.102 443.969 734.282 448.022 747.067 C 458.428 779.883 445.353 817.037 415.815 850.555 C 415.359 850.792 414.909 851.029 414.453 851.273 C 391.786 863.133 366.868 874.207 340.253 884.035 C 335.932 885.64 331.566 887.189 327.162 888.724 C 327.708 897.057 328.531 905.496 329.615 914.025 C 332.351 935.44 336.792 957.404 342.975 979.596 C 344.514 985.141 346.166 990.7 347.931 996.261 C 356.618 1023.716 367.945 1051.407 381.962 1078.724 C 406.775 1127.058 437.315 1168.947 470.749 1202.756 L 470.734 1202.749 Z" style=""/>
  <path class="cls-6" d="M 150.824 897.5 C 150.569 897.155 150.315 896.812 150.061 896.468 C 150.248 896.492 150.45 896.514 150.645 896.53 C 150.696 896.858 150.764 897.179 150.824 897.5 Z" style=""/>
  <path class="cls-6" d="M 164.064 948.744 C 161.223 940.175 158.666 931.468 156.408 922.64" style=""/>
  <path class="cls-6" d="M 415.792 850.54 C 415.396 850.991 414.999 851.434 414.595 851.877 C 414.543 851.67 414.484 851.464 414.439 851.258 C 414.895 851.013 415.343 850.777 415.799 850.54 L 415.792 850.54 Z" style=""/>
  <path class="cls-6" d="M 415.792 850.54 C 415.396 850.991 414.999 851.434 414.595 851.877 C 414.543 851.67 414.484 851.464 414.439 851.258 C 414.895 851.013 415.343 850.777 415.799 850.54 L 415.792 850.54 Z" style=""/>
  <path class="cls-6" d="M 415.792 850.54 C 415.396 850.991 414.999 851.434 414.595 851.877 C 414.543 851.67 414.484 851.464 414.439 851.258 C 414.895 851.013 415.343 850.777 415.799 850.54 L 415.792 850.54 Z" style=""/>
  <path class="cls-4" d="M 847.611 1036.812 C 842.67 1044.549 837.467 1052.102 832.01 1059.441 C 863.289 1080.244 881.344 1101.154 876.066 1113.64 C 871.304 1124.912 848.599 1126.76 817.513 1120.415 C 807.532 1118.367 796.684 1115.489 785.291 1111.792 C 773.366 1107.928 760.829 1103.185 748.06 1097.595 C 747.709 1097.443 747.343 1097.282 746.991 1097.129 C 699.091 1076.021 661.741 1049.231 649.794 1029.283 C 673.127 1025.235 696.535 1018.583 719.605 1009.175 C 719.621 1009.175 719.636 1009.159 719.65 1009.159 C 728.002 1005.76 736.135 1002.057 744.045 998.085 C 763.871 988.143 782.322 976.481 799.234 963.399 C 808.99 955.861 818.231 947.85 826.941 939.426 C 866.115 901.532 894.412 855.275 909.29 805.925 C 908.945 798.066 908.385 790.262 907.6 782.533 C 893.126 639.775 803.481 519.814 679.788 464.676 C 632.935 443.788 581.186 432.203 526.797 432.203 C 381.895 432.203 255.803 514.431 190.783 635.697 C 200.428 625.379 210.939 615.475 222.25 606.074 C 251.287 581.918 285.588 561.115 324.037 545.429 C 369.439 526.916 415.462 517.668 458.817 516.828 C 559.655 514.88 646.064 558.411 676.656 636.721 C 677.762 639.553 678.787 642.403 679.721 645.266 C 681.702 651.315 683.317 657.432 684.581 663.611 C 690.658 693.41 688.431 724.538 679.033 755.17 C 654.78 834.266 582.749 910.047 482.463 950.927 C 476.572 953.325 470.673 955.578 464.768 957.67 C 477.926 976.817 493.177 995.573 510.349 1013.588 C 514.238 1017.659 518.214 1021.692 522.289 1025.67 C 541.906 1044.862 563.752 1063.061 587.637 1079.77 C 624.533 1105.576 662.914 1125.485 700.856 1139.431 C 712.713 1143.791 724.518 1147.563 736.225 1150.756 C 761.681 1157.698 786.659 1161.876 810.568 1163.273 C 815.546 1163.563 820.473 1163.739 825.34 1163.785 L 825.378 1163.785 C 878.698 1168.313 919.644 1160.104 933.004 1139.972 C 934.559 1137.628 935.74 1135.123 936.525 1132.457 C 944.637 1104.85 907.832 1067.551 847.627 1036.82 L 847.611 1036.812 Z" style=""/>
  <path class="cls-2" d="M 676.087 756.384 C 685.485 725.753 687.713 694.617 681.635 664.825 C 680.371 658.647 678.756 652.529 676.775 646.481 C 675.841 643.617 674.817 640.768 673.71 637.935 C 643.118 559.625 556.709 516.095 455.871 518.042 C 412.525 518.882 366.501 528.131 321.092 546.643 C 282.642 562.321 248.342 583.124 219.304 607.288 C 207.993 616.689 197.489 626.601 187.837 636.912 L 187.837 636.4 C 222.647 578.244 277.671 529.345 347.46 500.89 C 425.436 469.097 507.254 468.784 576.887 493.978 C 648.246 519.792 706.807 572.387 735.305 645.343 C 744.77 669.559 750.31 694.479 752.246 719.49 C 753.801 739.521 755.079 760.042 750.086 779.448 C 717.557 905.931 622.222 1000.927 463.168 957.67 C 501.109 948.369 633.697 889.718 676.087 756.384 Z" style=""/>
  <text style="fill: rgb(51, 51, 51); font-family: Arial, sans-serif; font-size: 99.3px; white-space: pre;" x="1352.14" y="782.446" dy="1em" transform="matrix(0.683752, 0, 0, 0.68261, 9.203582, 155.933797)">​</text>
  <text style="fill: rgb(51, 51, 51); font-family: Arial, sans-serif; font-size: 99.3px; white-space: pre;" x="1486.88" y="177.291" dy="1em">​</text>
  <text style="fill: rgb(60, 56, 155); font-family: Arial, sans-serif; font-size: 150px; font-weight: 700; white-space: pre;" transform="matrix(3.279517, 0, 0, 4.231001, -2430.032299, -2344.268136)"><tspan x="1040.1" y="802.144">RKIVE</tspan><tspan x="1040.1" dy="1em">​</tspan></text>
  <text style="white-space: pre; fill: rgb(79, 73, 204); font-size: 53.2px;" x="1458.517" y="61.461"><tspan x="1458.5169677734375" dy="1em">​</tspan></text>
  <text style="white-space: pre; fill: rgb(79, 73, 204); font-size: 53.2px;" x="1775.278" y="293.122"><tspan x="1775.2779541015625" dy="1em">​</tspan></text>
  <text style="white-space: pre; fill: rgb(79, 73, 204); font-size: 53.2px;" x="2203.141" y="125.286"><tspan x="2203.14111328125" dy="1em">​</tspan></text>
  <text style="white-space: pre; fill: rgb(79, 73, 204); font-size: 53.2px;" x="2181.866" y="126.074"><tspan x="2181.865966796875" dy="1em">​</tspan></text>
</svg>